User Type,Username,Date,Text
,buster2209,2011-06-14T14:06Z,"What's the quality?  720p?

Where was it ripped from?  BBC?"
,JAYBEE123,2011-06-14T14:20Z,"Sorry,trying to edit the info but cant at the mo.
As i sais this is my 1st torrent so getting used to it, Heres the details. All i could find is the content from BBC i Player which i downloaded, i missed recording it on sky or i would have upped that instead......

Format                           : MPEG-4
Format profile                   : Base Media
Codec ID                         : isom
File size                        : 328 MiB
Duration                         : 57mn 28s
Overall bit rate                 : 799 Kbps
Recorded date                    : 2011
Writing application              : Lavf52.93.0
Comment                          : Uploaded By Jay B! (Deejay1210)

Video
ID                               : 1
Format                           : AVC
Format/Info                      : Advanced Video Codec
Format profile                   : Main@L3.0
Format settings, CABAC           : Yes
Format settings, ReFrames        : 4 frames
Codec ID                         : avc1
Codec ID/Info                    : Advanced Video Coding
Duration                         : 57mn 28s
Bit rate mode                    : Constant
Bit rate                         : 700 Kbps
Width                            : 640 pixels
Height                           : 360 pixels
Display aspect ratio             : 16:9
Frame rate mode                  : Constant
Frame rate                       : 25.000 fps
Standard                         : PAL
Color space                      : YUV
Chroma subsampling               : 4:2:0
Bit depth                        : 8 bits
Scan type                        : Progressive
Bits/(Pixel*Frame)               : 0.122
Stream size                      : 287 MiB (87%)

Audio
ID                               : 2
Format                           : AAC
Format/Info                      : Advanced Audio Codec
Format profile                   : HE-AAC / LC
Codec ID                         : 40
Duration                         : 57mn 28s
Bit rate mode                    : Variable
Bit rate                         : 96.0 Kbps
Channel(s)                       : 2 channels
Channel positions                : Front: L R
Sampling rate                    : 48.0 KHz / 24.0 KHz
Compression mode                 : Lossy
Stream size                      : 38.9 MiB (12%)"
,JAYBEE123,2011-06-14T14:23Z,"Format                           : MPEG-4
Format profile                   : Base Media
Codec ID                         : isom
File size                        : 328 MiB
Duration                         : 57mn 28s
Overall bit rate                 : 799 Kbps
Recorded date                    : 2011
Writing application              : Lavf52.93.0
Comment                          : Uploaded By Jay B! (Deejay1210)

Video
ID                               : 1
Format                           : AVC
Format/Info                      : Advanced Video Codec
Format profile                   : Main@L3.0
Format settings, CABAC           : Yes
Format settings, ReFrames        : 4 frames
Codec ID                         : avc1
Codec ID/Info                    : Advanced Video Coding
Duration                         : 57mn 28s
Bit rate mode                    : Constant
Bit rate                         : 700 Kbps
Width                            : 640 pixels
Height                           : 360 pixels
Display aspect ratio             : 16:9
Frame rate mode                  : Constant
Frame rate                       : 25.000 fps
Standard                         : PAL
Color space                      : YUV
Chroma subsampling               : 4:2:0
Bit depth                        : 8 bits
Scan type                        : Progressive
Bits/(Pixel*Frame)               : 0.122
Stream size                      : 287 MiB (87%)

Audio
ID                               : 2
Format                           : AAC
Format/Info                      : Advanced Audio Codec
Format profile                   : HE-AAC / LC
Codec ID                         : 40
Duration                         : 57mn 28s
Bit rate mode                    : Variable
Bit rate                         : 96.0 Kbps
Channel(s)                       : 2 channels
Channel positions                : Front: L R
Sampling rate                    : 48.0 KHz / 24.0 KHz
Compression mode                 : Lossy
Stream size                      : 38.9 MiB (12%)"
,WhoIsThere,2011-06-14T14:35Z,"First thx for the seed.
problem for me, connection error pirate tracker (down longtime isn't it?)

Is there another tracker i can use?
have s/l 0/0.

thx for help!

WiT"
,clockss,2011-06-14T23:35Z,stuck at 79.3%
,yokbisey,2011-06-15T00:29Z,"stuck at %82 1 kb/s. cmon fast people, dl and seed."
,yokbisey,2011-06-15T19:12Z,"finished dl. good quality, been looking forward to this. thanks jaybee"
,JAYBEE123,2011-06-15T19:32Z,"Thanx for the tracker suggestions,i do use most of those and a few others ive picked up on."
,kasster,2011-06-16T04:52Z,"Its BBC and its ok to watch,  - no forum..."
,tegatai,2011-06-16T18:35Z,Thanks for putting this up JayBee.  Wow!  What a race!
,JAYBEE123,2011-06-16T19:54Z,"Yeh,no problem. I agree,was a DAMN good race!!!"
,teok31,2011-06-17T00:31Z,"very good job!!!!!!
keep on doing
we love the f1 and the people who cares about
a8 v8"
